HIERARCHY
ROOT Hips
{
  OFFSET 5.72205e-005 65.662 3.42586
  CHANNELS 6 Xposition Yposition Zposition Zrotation Xrotation Yrotation
  JOINT Chest
  {
    OFFSET 0 8.7983 -4.7612
    CHANNELS 6 Xposition Yposition Zposition Zrotation Xrotation Yrotation
    JOINT Chest2
    {
      OFFSET 0 8.0291 0.4195
      CHANNELS 6 Xposition Yposition Zposition Zrotation Xrotation Yrotation
      JOINT Chest3
      {
        OFFSET 0 9.9351 -2.2114
        CHANNELS 6 Xposition Yposition Zposition Zrotation Xrotation Yrotation
        JOINT Neck
        {
          OFFSET 0 22.3885 -0.4656
          CHANNELS 6 Xposition Yposition Zposition Zrotation Xrotation Yrotation
          JOINT Head
          {
            OFFSET -0.0001 12.643 3.4389
            CHANNELS 6 Xposition Yposition Zposition Zrotation Xrotation Yrotation
            End Site
            {
              OFFSET 0.0001 17.6655 0.5274
            }
          }
        }
        JOINT LeftCollar
        {
          OFFSET 2.2603 21.606 7.4023
          CHANNELS 6 Xposition Yposition Zposition Zrotation Xrotation Yrotation
          JOINT LeftShoulder
          {
            OFFSET 13.5163 -1.1332 -5.0146
            CHANNELS 6 Xposition Yposition Zposition Zrotation Xrotation Yrotation
            JOINT LeftElbow
            {
              OFFSET -0.0995 -28.05 -0.2431
              CHANNELS 6 Xposition Yposition Zposition Zrotation Xrotation Yrotation
              JOINT LeftWrist
              {
                OFFSET 0.0679 -23.3996 -0.1402
                CHANNELS 6 Xposition Yposition Zposition Zrotation Xrotation Yrotation
                JOINT LeftFinger1
                {
                  OFFSET 0.7932 -9.069 2.5189
                  CHANNELS 6 Xposition Yposition Zposition Zrotation Xrotation Yrotation
                  JOINT LeftFinger11
                  {
                    OFFSET -0.8272 -3.3923 0.5977
                    CHANNELS 6 Xposition Yposition Zposition Zrotation Xrotation Yrotation
                    JOINT LeftFinger12
                    {
                      OFFSET -0.5649 -2.3158 0.4082
                      CHANNELS 6 Xposition Yposition Zposition Zrotation Xrotation Yrotation
                      End Site
                      {
                        OFFSET -0.4919 -1.6479 0.2673
                      }
                    }
                  }
                }
                JOINT LeftFinger2
                {
                  OFFSET 0.9159 -9.2044 0.2193
                  CHANNELS 6 Xposition Yposition Zposition Zrotation Xrotation Yrotation
                  JOINT LeftFinger21
                  {
                    OFFSET 0.0117 -4.1944 -0.0248
                    CHANNELS 6 Xposition Yposition Zposition Zrotation Xrotation Yrotation
                    JOINT LeftFinger22
                    {
                      OFFSET 0.0071 -2.3249 -0.0142
                      CHANNELS 6 Xposition Yposition Zposition Zrotation Xrotation Yrotation
                      End Site
                      {
                        OFFSET -0.1475 -2.0882 0.0028
                      }
                    }
                  }
                }
                JOINT LeftFinger3
                {
                  OFFSET 0.6113 -8.7231 -2.0637
                  CHANNELS 6 Xposition Yposition Zposition Zrotation Xrotation Yrotation
                  JOINT LeftFinger31
                  {
                    OFFSET -0.1927 -3.8059 -0.2383
                    CHANNELS 6 Xposition Yposition Zposition Zrotation Xrotation Yrotation
                    JOINT LeftFinger32
                    {
                      OFFSET -0.1091 -2.1688 -0.1362
                      CHANNELS 6 Xposition Yposition Zposition Zrotation Xrotation Yrotation
                      End Site
                      {
                        OFFSET -0.2358 -1.9176 -0.0906
                      }
                    }
                  }
                }
                JOINT LeftFinger4
                {
                  OFFSET -0.6151 -8.0947 -3.5641
                  CHANNELS 6 Xposition Yposition Zposition Zrotation Xrotation Yrotation
                  JOINT LeftFinger41
                  {
                    OFFSET -0.4882 -2.341 -0.6462
                    CHANNELS 6 Xposition Yposition Zposition Zrotation Xrotation Yrotation
                    JOINT LeftFinger42
                    {
                      OFFSET -0.3575 -1.7167 -0.4742
                      CHANNELS 6 Xposition Yposition Zposition Zrotation Xrotation Yrotation
                      End Site
                      {
                        OFFSET -0.4187 -1.5237 -0.3496
                      }
                    }
                  }
                }
                JOINT LeftFinger0
                {
                  OFFSET -1.42 -1.8761 1.4223
                  CHANNELS 6 Xposition Yposition Zposition Zrotation Xrotation Yrotation
                  JOINT LeftFinger01
                  {
                    OFFSET -1.1471 -3.4929 2.6334
                    CHANNELS 6 Xposition Yposition Zposition Zrotation Xrotation Yrotation
                    JOINT LeftFinger02
                    {
                      OFFSET -0.823 -2.3 1.6571
                      CHANNELS 6 Xposition Yposition Zposition Zrotation Xrotation Yrotation
                      End Site
                      {
                        OFFSET -0.5822 -1.6914 1.1582
                      }
                    }
                  }
                }
              }
            }
          }
        }
        JOINT RightCollar
        {
          OFFSET -2.2603 21.606 7.4023
          CHANNELS 6 Xposition Yposition Zposition Zrotation Xrotation Yrotation
          JOINT RightShoulder
          {
            OFFSET -13.5187 -1.1334 -5.0155
            CHANNELS 6 Xposition Yposition Zposition Zrotation Xrotation Yrotation
            JOINT RightElbow
            {
              OFFSET 0.0994 -28.0499 -0.2431
              CHANNELS 6 Xposition Yposition Zposition Zrotation Xrotation Yrotation
              JOINT RightWrist
              {
                OFFSET -0.0679 -23.3996 -0.1402
                CHANNELS 6 Xposition Yposition Zposition Zrotation Xrotation Yrotation
                JOINT RightFinger1
                {
                  OFFSET -0.7932 -9.0691 2.5189
                  CHANNELS 6 Xposition Yposition Zposition Zrotation Xrotation Yrotation
                  JOINT RightFinger11
                  {
                    OFFSET 0.8272 -3.3923 0.5977
                    CHANNELS 6 Xposition Yposition Zposition Zrotation Xrotation Yrotation
                    JOINT RightFinger12
                    {
                      OFFSET 0.565 -2.3158 0.4082
                      CHANNELS 6 Xposition Yposition Zposition Zrotation Xrotation Yrotation
                      End Site
                      {
                        OFFSET 0.4919 -1.6479 0.2673
                      }
                    }
                  }
                }
                JOINT RightFinger2
                {
                  OFFSET -0.916 -9.2044 0.2193
                  CHANNELS 6 Xposition Yposition Zposition Zrotation Xrotation Yrotation
                  JOINT RightFinger21
                  {
                    OFFSET -0.0117 -4.1944 -0.0248
                    CHANNELS 6 Xposition Yposition Zposition Zrotation Xrotation Yrotation
                    JOINT RightFinger22
                    {
                      OFFSET -0.0071 -2.3249 -0.0142
                      CHANNELS 6 Xposition Yposition Zposition Zrotation Xrotation Yrotation
                      End Site
                      {
                        OFFSET 0.1475 -2.0882 0.0028
                      }
                    }
                  }
                }
                JOINT RightFinger3
                {
                  OFFSET -0.6113 -8.7231 -2.0637
                  CHANNELS 6 Xposition Yposition Zposition Zrotation Xrotation Yrotation
                  JOINT RightFinger31
                  {
                    OFFSET 0.1927 -3.8059 -0.2383
                    CHANNELS 6 Xposition Yposition Zposition Zrotation Xrotation Yrotation
                    JOINT RightFinger32
                    {
                      OFFSET 0.1091 -2.1688 -0.1362
                      CHANNELS 6 Xposition Yposition Zposition Zrotation Xrotation Yrotation
                      End Site
                      {
                        OFFSET 0.2358 -1.9176 -0.0906
                      }
                    }
                  }
                }
                JOINT RightFinger4
                {
                  OFFSET 0.6151 -8.0947 -3.564
                  CHANNELS 6 Xposition Yposition Zposition Zrotation Xrotation Yrotation
                  JOINT RightFinger41
                  {
                    OFFSET 0.4882 -2.341 -0.6462
                    CHANNELS 6 Xposition Yposition Zposition Zrotation Xrotation Yrotation
                    JOINT RightFinger42
                    {
                      OFFSET 0.3574 -1.7166 -0.4742
                      CHANNELS 6 Xposition Yposition Zposition Zrotation Xrotation Yrotation
                      End Site
                      {
                        OFFSET 0.4187 -1.5237 -0.3496
                      }
                    }
                  }
                }
                JOINT RightFinger0
                {
                  OFFSET 1.4199 -1.8761 1.4221
                  CHANNELS 6 Xposition Yposition Zposition Zrotation Xrotation Yrotation
                  JOINT RightFinger01
                  {
                    OFFSET 1.1472 -3.4929 2.6336
                    CHANNELS 6 Xposition Yposition Zposition Zrotation Xrotation Yrotation
                    JOINT RightFinger02
                    {
                      OFFSET 0.8229 -2.3 1.6571
                      CHANNELS 6 Xposition Yposition Zposition Zrotation Xrotation Yrotation
                      End Site
                      {
                        OFFSET 0.5822 -1.6914 1.1582
                      }
                    }
                  }
                }
              }
            }
          }
        }
      }
    }
  }
  JOINT RightHip
  {
    OFFSET -9.412 3.9771 -0.7758
    CHANNELS 6 Xposition Yposition Zposition Zrotation Xrotation Yrotation
    JOINT RightKnee
    {
      OFFSET -0.7531 -40.938 0
      CHANNELS 6 Xposition Yposition Zposition Zrotation Xrotation Yrotation
      JOINT RightAnkle
      {
        OFFSET 0 -40.1986 0
        CHANNELS 6 Xposition Yposition Zposition Zrotation Xrotation Yrotation
        JOINT RightToe
        {
          OFFSET 0 -4.4182 9.239
          CHANNELS 6 Xposition Yposition Zposition Zrotation Xrotation Yrotation
          End Site
          {
            OFFSET 0 0 6.1981
          }
        }
      }
    }
  }
  JOINT LeftHip
  {
    OFFSET 9.4119 3.9773 -0.7758
    CHANNELS 6 Xposition Yposition Zposition Zrotation Xrotation Yrotation
    JOINT LeftKnee
    {
      OFFSET 0.7532 -40.9383 0
      CHANNELS 6 Xposition Yposition Zposition Zrotation Xrotation Yrotation
      JOINT LeftAnkle
      {
        OFFSET 0 -40.1986 0
        CHANNELS 6 Xposition Yposition Zposition Zrotation Xrotation Yrotation
        JOINT LeftToe
        {
          OFFSET 0 -4.4182 9.239
          CHANNELS 6 Xposition Yposition Zposition Zrotation Xrotation Yrotation
          End Site
          {
            OFFSET 0 0 6.1981
          }
        }
      }
    }
  }
}
MOTION
Frames:	4
Frame Time:	0.0333333
0.80668 12.9964 21.5039 173.405 -88.2826 -6.38878 0 8.7983 -4.7612 -0.093733 -3.60124 -0.280082 -1.11022e-016 8.0291 0.4195 -0.205754 -7.20195 -0.567765 1.11022e-016 9.9351 -2.2114 -0.205755 -7.20198 -0.567767 0 22.3885 -0.4656 7.00786 -2.93537 -4.641 -0.0001 12.643 3.4389 1.2059e-006 -13.086 5.45717e-007 2.2603 21.606 7.4023 10.55 6.08121 -29.5455 13.5163 -1.1332 -5.0146 81.5215 -16.6396 30.9982 -0.0995 -28.05 -0.2431 -15.6082 -42.5679 -16.6059 0.0679 -23.3996 -0.1402 58.6107 -13.9775 8.03032 0.7932 -9.06901 2.5189 -3.31229e-006 -1.97177e-007 -1.00215e-007 -0.8272 -3.3923 0.5977 3.18055e-015 5.96354e-016 -7.45443e-016 -0.5649 -2.3158 0.4082 3.18055e-015 2.18663e-015 -5.56597e-015 0.9159 -9.20441 0.2193 -3.31229e-006 -1.97177e-007 -1.00215e-007 0.0117 -4.1944 -0.0248 -0.0128108 0.00232269 8.33876e-005 0.0071 -2.3249 -0.0142 8.41401e-032 -7.95139e-016 6.06293e-015 0.6113 -8.72311 -2.0637 -3.31229e-006 -1.97177e-007 -1.00215e-007 -0.1927 -3.8059 -0.2383 -0.0160359 0.00298512 0.00085084 -0.1091 -2.1688 -0.1362 4.77083e-015 9.93923e-016 3.23025e-015 -0.6151 -8.09471 -3.5641 -3.31229e-006 -1.97177e-007 -1.00215e-007 -0.4882 -2.341 -0.6462 -0.012604 0.00312438 0.00282673 -0.3575 -1.7167 -0.4742 2.47909e-006 -3.38204e-006 -8.5097e-007 -1.42 -1.8761 1.4223 -3.31229e-006 -1.97177e-007 -1.00215e-007 -1.1471 -3.4929 2.6334 3.18055e-015 5.96354e-016 -7.45443e-016 -0.823 -2.3 1.6571 3.18055e-015 2.18663e-015 -5.56597e-015 -2.2603 21.606 7.4023 21.7483 3.59686 9.56965 -13.5187 -1.1334 -5.0155 -73.7916 -31.1209 -0.36561 0.0994 -28.0499 -0.2431 -12.5469 -29.0763 -14.1065 -0.0679 -23.3996 -0.1402 -57.3765 -11.1249 -6.5377 -0.7932 -9.06911 2.5189 1.3151e-006 2.18701e-006 1.03864e-006 0.8272 -3.3923 0.5977 3.18055e-015 -6.36111e-015 -0 0.565 -2.3158 0.4082 1.92419e-006 -2.70965e-007 5.82653e-006 -0.916 -9.20441 0.2193 1.3151e-006 2.18701e-006 1.03864e-006 -0.0117 -4.1944 -0.0248 0.0129345 0.00231674 -7.54969e-005 -0.0071 -2.3249 -0.0142 1.01153e-005 1.06257e-006 -1.24805e-006 -0.6113 -8.72311 -2.0637 1.3151e-006 2.18701e-006 1.03864e-006 0.1927 -3.8059 -0.2383 0.0163581 0.00303844 -0.000871319 0.1091 -2.1688 -0.1362 5.46439e-006 -3.0656e-006 -6.14849e-007 0.6151 -8.09471 -3.564 1.3151e-006 2.18701e-006 1.03864e-006 0.4882 -2.341 -0.6462 0.0145945 0.00367981 -0.00325816 0.3574 -1.7166 -0.4742 2.6299e-006 1.70698e-006 2.07748e-006 1.4199 -1.8761 1.4221 1.3151e-006 2.18701e-006 1.03864e-006 1.1472 -3.4929 2.6336 3.18055e-015 -6.36111e-015 -0 0.8229 -2.3 1.6571 1.92419e-006 -2.70965e-007 5.82653e-006 -9.412 3.9771 -0.7758 -15.1432 -36.744 -25.73 -0.7531 -40.938 3.55271e-015 7.70039 47.7041 -4.51802 0 -40.1986 0 -2.74842 44.9782 5.8529 3.55271e-015 -4.4182 9.239 -9.77097e-007 -4.85441e-007 -1.38254e-006 9.4119 3.9773 -0.7758 14.2994 -35.9264 25.1878 0.7532 -40.9383 0 -7.45768 45.9519 4.57088 0 -40.1986 0 2.72609 44.6973 -5.7172 -3.55271e-015 -4.4182 9.239 7.95139e-016 3.18055e-015 7.95139e-016 
0.807221 13.1294 21.5893 174.868 -87.714 -4.91905 -1.11022e-016 8.7983 -4.7612 -0.0928288 -3.65181 -0.28055 0 8.0291 0.4195 -0.20424 -7.30308 -0.56878 0 9.9351 -2.2114 -0.204241 -7.3031 -0.568782 2.22045e-016 22.3885 -0.4656 7.00986 -3.23582 -4.604 -0.0001 12.643 3.4389 4.69009e-007 -13.1304 8.25856e-007 2.2603 21.606 7.4023 10.7125 5.81706 -29.2464 13.5163 -1.1332 -5.0146 81.4915 -16.7254 30.9832 -0.0995 -28.05 -0.2431 -15.8126 -42.8641 -16.754 0.0679 -23.3996 -0.1402 58.6467 -13.7563 7.97941 0.7932 -9.069 2.5189 -1.59028e-015 -5.96354e-016 2.73329e-015 -0.8272 -3.3923 0.5977 -1.59028e-015 0 -4.47266e-016 -0.5649 -2.3158 0.4082 -1.66738e-006 4.73488e-007 -1.90165e-006 0.9159 -9.2044 0.2193 -1.59028e-015 -5.96354e-016 2.73329e-015 0.0117 -4.1944 -0.0248 -0.0128329 0.00233875 9.02177e-005 0.0071 -2.3249 -0.0142 -2.48888e-006 1.76715e-007 -1.00103e-006 0.6113 -8.7231 -2.0637 -1.59028e-015 -5.96354e-016 2.73329e-015 -0.1927 -3.8059 -0.2383 -0.0160616 0.00299739 0.000850932 -0.1091 -2.1688 -0.1362 -2.3551e-006 -9.56655e-007 4.14319e-006 -0.6151 -8.0947 -3.5641 -1.59028e-015 -5.96354e-016 2.73329e-015 -0.4882 -2.341 -0.6462 -0.012604 0.00312881 0.00282982 -0.3575 -1.7167 -0.4742 -3.18055e-015 0 2.98177e-016 -1.42 -1.8761 1.4223 -1.59028e-015 -5.96354e-016 2.73329e-015 -1.1471 -3.4929 2.6334 -1.59028e-015 0 -4.47266e-016 -0.823 -2.3 1.6571 -1.66738e-006 4.73488e-007 -1.90165e-006 -2.2603 21.606 7.4023 21.6083 3.4596 9.41895 -13.5187 -1.1334 -5.0155 -73.7182 -31.274 -0.315128 0.0994 -28.0499 -0.2431 -12.5891 -29.2571 -14.1265 -0.0679 -23.3996 -0.1402 -57.4623 -10.98 -6.58706 -0.7932 -9.0691 2.5189 3.18055e-015 -3.18055e-015 1.59028e-015 0.8272 -3.3923 0.5977 3.18055e-015 -3.18055e-015 3.18055e-015 0.565 -2.3158 0.4082 4.77083e-015 0 1.59028e-015 -0.916 -9.2044 0.2193 3.18055e-015 -3.18055e-015 1.59028e-015 -0.0117 -4.1944 -0.0248 0.0129407 0.00230354 -9.04147e-005 -0.0071 -2.3249 -0.0142 -3.18055e-015 -3.49861e-014 -0 -0.6113 -8.7231 -2.0637 3.18055e-015 -3.18055e-015 1.59028e-015 0.1927 -3.8059 -0.2383 0.0163439 0.00302762 -0.000875733 0.1091 -2.1688 -0.1362 -2.04287e-007 1.56919e-006 4.76996e-006 0.6151 -8.0947 -3.564 3.18055e-015 -3.18055e-015 1.59028e-015 0.4882 -2.341 -0.6462 0.0145955 0.00368463 -0.00326967 0.3574 -1.7166 -0.4742 7.48519e-006 -2.40271e-006 -3.32663e-006 1.4199 -1.8761 1.4221 3.18055e-015 -3.18055e-015 1.59028e-015 1.1472 -3.4929 2.6336 3.18055e-015 -3.18055e-015 3.18055e-015 0.8229 -2.3 1.6571 4.77083e-015 0 1.59028e-015 -9.412 3.9771 -0.7758 -15.424 -37.4231 -26.249 -0.7531 -40.938 -3.55271e-015 7.66821 47.8955 -4.51681 0 -40.1986 0 -3.03918 44.967 6.1389 0 -4.4182 9.239 -9.77271e-007 3.59929e-006 -1.38245e-006 9.4119 3.9773 -0.7758 14.5822 -36.6261 25.6898 0.7532 -40.9383 -3.55271e-015 -7.44081 46.1711 4.58185 0 -40.1986 0 3.00584 44.6722 -5.99963 0 -4.4182 9.239 1.78072e-006 -2.57455e-008 -3.35525e-007 
0.807771 13.2627 21.674 175.747 -87.1447 -4.034 1.11022e-016 8.7983 -4.7612 -0.0919223 -3.70236 -0.281013 0 8.0291 0.4195 -0.202722 -7.40418 -0.569783 0 9.9351 -2.2114 -0.202723 -7.40421 -0.569785 -2.22045e-016 22.3885 -0.4656 7.01205 -3.53633 -4.56697 -0.0001 12.643 3.4389 1.52392e-006 -13.1748 -1.33599e-006 2.2603 21.606 7.4023 10.8763 5.55375 -28.9467 13.5163 -1.1332 -5.0146 81.4627 -16.8109 30.9683 -0.0995 -28.05 -0.2431 -16.02 -43.1595 -16.9041 0.0679 -23.3996 -0.1402 58.6828 -13.535 7.92844 0.7932 -9.069 2.5189 -4.77083e-015 -9.93923e-016 2.83268e-015 -0.8272 -3.3923 0.5977 5.08634e-032 -9.93923e-016 2.93207e-015 -0.5649 -2.3158 0.4082 -1.59028e-015 -9.93923e-016 3.03147e-015 0.9159 -9.2044 0.2193 -4.77083e-015 -9.93923e-016 2.83268e-015 0.0117 -4.1944 -0.0248 -0.0128077 0.00230516 7.48962e-005 0.0071 -2.3249 -0.0142 -4.77083e-015 1.98785e-016 -6.55989e-015 0.6113 -8.7231 -2.0637 -4.77083e-015 -9.93923e-016 2.83268e-015 -0.1927 -3.8059 -0.2383 -0.0160373 0.00298987 0.000859033 -0.1091 -2.1688 -0.1362 1.59028e-015 -1.98785e-016 -2.03754e-015 -0.6151 -8.0947 -3.5641 -4.77083e-015 -9.93923e-016 2.83268e-015 -0.4882 -2.341 -0.6462 -0.0125498 0.00309516 0.00281445 -0.3575 -1.7167 -0.4742 5.31048e-032 1.39149e-015 -2.18663e-015 -1.42 -1.8761 1.4223 -4.77083e-015 -9.93923e-016 2.83268e-015 -1.1471 -3.4929 2.6334 5.08634e-032 -9.93923e-016 2.93207e-015 -0.823 -2.3 1.6571 -1.59028e-015 -9.93923e-016 3.03147e-015 -2.2603 21.606 7.4023 21.468 3.32277 9.26794 -13.5187 -1.1334 -5.0155 -73.642 -31.4258 -0.263056 0.0994 -28.0499 -0.2431 -12.6337 -29.439 -14.147 -0.0679 -23.3996 -0.1402 -57.548 -10.835 -6.63622 -0.793199 -9.06911 2.5189 -3.11307e-007 -1.88346e-006 1.00326e-006 0.827199 -3.3923 0.5977 -2.31938e-006 1.70364e-007 -3.07979e-006 0.565 -2.3158 0.4082 3.18055e-015 -6.36111e-015 3.18055e-015 -0.915999 -9.20441 0.2193 -3.11307e-007 -1.88346e-006 1.00326e-006 -0.0117 -4.1944 -0.0248 0.0129901 0.00232876 -9.60748e-005 -0.00709999 -2.3249 -0.0142 -3.18055e-015 0 -7.95139e-016 -0.6113 -8.72311 -2.0637 -3.11307e-007 -1.88346e-006 1.00326e-006 0.1927 -3.8059 -0.2383 0.016334 0.00303828 -0.000878175 0.1091 -2.1688 -0.1362 -1.59028e-015 1.27222e-014 -2.38542e-015 0.6151 -8.09471 -3.564 -3.11307e-007 -1.88346e-006 1.00326e-006 0.4882 -2.341 -0.6462 0.0145703 0.00367785 -0.0032682 0.3574 -1.7166 -0.4742 1.76556e-031 -6.36111e-015 1.59028e-015 1.4199 -1.8761 1.4221 -3.11307e-007 -1.88346e-006 1.00326e-006 1.1472 -3.4929 2.6336 -2.31938e-006 1.70364e-007 -3.07979e-006 0.822899 -2.3 1.6571 3.18055e-015 -6.36111e-015 3.18055e-015 -9.412 3.9771 -0.7758 -15.7146 -38.1008 -26.7766 -0.7531 -40.938 3.55271e-015 7.63551 48.0875 -4.51568 0 -40.1986 -3.55271e-015 -3.32989 44.9548 6.4248 0 -4.4182 9.239 3.97569e-015 5.76938e-009 1.59028e-015 9.4119 3.9773 -0.7758 14.8753 -37.3234 26.2006 0.7532 -40.9383 7.10543e-015 -7.4244 46.3901 4.59292 0 -40.1986 0 3.28543 44.6461 -6.28182 3.55271e-015 -4.4182 9.239 -1.78056e-006 4.07635e-006 3.35816e-007 
0.808333 13.3963 21.7579 176.333 -86.5751 -3.44238 0 8.7983 -4.7612 -0.0910146 -3.75288 -0.281471 0 8.0291 0.4195 -0.201199 -7.50524 -0.570774 0 9.9351 -2.2114 -0.2012 -7.50528 -0.570775 0 22.3885 -0.4656 7.01444 -3.83685 -4.52991 -0.0001 12.643 3.4389 2.67172e-007 -13.2192 -1.10577e-006 2.2603 21.606 7.4023 11.0414 5.2914 -28.6465 13.5163 -1.1332 -5.0146 81.4349 -16.8962 30.9538 -0.0995 -28.05 -0.2431 -16.2303 -43.4541 -17.0562 0.0679 -23.3996 -0.1402 58.7191 -13.3138 7.87737 0.7932 -9.069 2.5189 -3.31213e-006 -1.59417e-007 -9.99344e-008 -0.8272 -3.3923 0.5977 1.59028e-015 -1.39149e-015 3.8266e-015 -0.5649 -2.3158 0.4082 -1.53162e-006 -7.32181e-007 3.24284e-006 0.9159 -9.2044 0.2193 -3.31213e-006 -1.59417e-007 -9.99344e-008 0.0117 -4.1944 -0.0248 -0.0127856 0.00232898 9.41717e-005 0.0071 -2.3249 -0.0142 -1.59028e-015 1.19271e-015 1.68967e-015 0.6113 -8.7231 -2.0637 -3.31213e-006 -1.59417e-007 -9.99344e-008 -0.1927 -3.8059 -0.2383 -0.0160521 0.00299642 0.000862673 -0.1091 -2.1688 -0.1362 -3.87941e-032 5.96354e-016 3.72721e-015 -0.6151 -8.0947 -3.5641 -3.31213e-006 -1.59417e-007 -9.99344e-008 -0.4882 -2.341 -0.6462 -0.012615 0.0031353 0.00284505 -0.3575 -1.7167 -0.4742 -1.59028e-015 1.19271e-015 -1.25731e-014 -1.42 -1.8761 1.4223 -3.31213e-006 -1.59417e-007 -9.99344e-008 -1.1471 -3.4929 2.6334 1.59028e-015 -1.39149e-015 3.8266e-015 -0.823 -2.3 1.6571 -1.53162e-006 -7.32181e-007 3.24284e-006 -2.2603 21.606 7.4023 21.3273 3.18632 9.1166 -13.5187 -1.1334 -5.0155 -73.5691 -31.5793 -0.212458 0.0994 -28.0499 -0.2431 -12.6753 -29.6193 -14.1673 -0.0679 -23.3996 -0.1402 -57.6335 -10.6899 -6.68511 -0.7932 -9.0691 2.5189 -3.18055e-015 6.36111e-015 -0 0.8272 -3.3923 0.5977 1.51795e-006 5.46777e-006 -3.73249e-006 0.565 -2.3158 0.4082 1.61461e-006 -6.71575e-006 6.82959e-006 -0.916 -9.2044 0.2193 -3.18055e-015 6.36111e-015 -0 -0.0117 -4.1944 -0.0248 0.0129298 0.0023188 -8.12437e-005 -0.0071 -2.3249 -0.0142 -0 0 3.18055e-015 -0.6113 -8.7231 -2.0637 -3.18055e-015 6.36111e-015 -0 0.1927 -3.8059 -0.2383 0.0163203 0.00304597 -0.000881842 0.1091 -2.1688 -0.1362 3.18055e-015 -1.27222e-014 1.59028e-015 0.6151 -8.0947 -3.564 -3.18055e-015 6.36111e-015 -0 0.4882 -2.341 -0.6462 0.0145629 0.00367768 -0.0032626 0.3574 -1.7166 -0.4742 -4.77083e-015 0 -0 1.4199 -1.8761 1.4221 -3.18055e-015 6.36111e-015 -0 1.1472 -3.4929 2.6336 1.51795e-006 5.46777e-006 -3.73249e-006 0.8229 -2.3 1.6571 1.61461e-006 -6.71575e-006 6.82959e-006 -9.412 3.9771 -0.7758 -16.016 -38.7757 -27.3133 -0.7531 -40.938 3.55271e-015 7.60321 48.2791 -4.51441 0 -40.1986 0 -3.62052 44.9417 6.71057 0 -4.4182 9.239 1.79329e-006 2.68991e-006 -3.06602e-007 9.4119 3.9773 -0.7758 15.1792 -38.0174 26.7206 0.7532 -40.9383 3.55271e-015 -7.40883 46.6086 4.60399 0 -40.1986 0 3.56478 44.6189 -6.56372 0 -4.4182 9.239 7.89217e-006 2.64882e-007 8.22588e-007 
